<svg width="100" height="100" viewBox="0 0 100 100" fill="none" xmlns="http://www.w3.org/2000/svg">
<g clip-path="url(#clip0_222_88)">
<rect y="100" width="100" height="100" rx="15" transform="rotate(-90 0 100)" fill="#015135"/>
<path fill-rule="evenodd" clip-rule="evenodd" d="M63.4503 77.2599C63.4503 77.2599 69.8542 85.5343 79.4542 92.7576C82.676 95.1779 76.8499 100.666 74.0908 98.7305C39.1627 74.2059 42.1515 24.6267 42.1515 24.6267C42.1515 24.6267 22.7825 56.3102 47.9513 87.7173L47.7602 87.6854C40.3026 86.4411 26.2367 84.0943 19.325 63.1737C9.85652 34.5633 39.896 -3.35157 41.5366 2.37741C45.4495 16.0117 54.9557 22.3518 63.9818 28.3718C71.2033 33.1883 78.1175 37.7997 81.6142 45.7778C86.0354 55.8651 77.3157 63.9117 69.9347 70.7229C67.4307 73.0336 65.0808 75.2021 63.4503 77.2599ZM58.4523 59.9948C61.0775 64.3766 74.8852 51.3212 68.9532 45.7778C63.8108 40.9722 53.2018 42.3532 53.2018 42.3532C53.2018 42.3532 52.8228 50.5986 58.4523 59.9948Z" fill="#E4DFB8"/>
</g>
<defs>
<clipPath id="clip0_222_88">
<rect y="100" width="100" height="100" rx="15" transform="rotate(-90 0 100)" fill="white"/>
</clipPath>
</defs>
</svg>
