<svg width="500" height="100" viewBox="0 0 500 100" fill="none" xmlns="http://www.w3.org/2000/svg">
<g clip-path="url(#clip0_212_6)">
<rect y="100" width="100" height="500" rx="15" transform="rotate(-90 0 100)" fill="#015135"/>
<path d="M132.28 73.64H123.576L120.184 62.76H103.416L100.088 73.64H91.384L107.256 27.56H116.728L132.28 73.64ZM118.136 55.656L111.864 35.368L105.528 55.656H118.136ZM161.744 56.936C161.744 67.176 158.48 74.408 148.56 74.408C144.976 74.408 142.288 73.128 140.88 69.992V85.8H133.008V40.36H140.048L140.56 44.648C142.096 40.936 145.04 39.592 148.56 39.592C158.48 39.592 161.744 46.952 161.744 56.936ZM153.744 56.936C153.744 51.88 152.976 46.44 147.28 46.44C142.032 46.44 141.008 51.176 140.88 56.936C140.88 61.992 141.968 67.496 147.28 67.496C152.656 67.496 153.744 62.056 153.744 56.936ZM194.014 56.936C194.014 67.176 190.75 74.408 180.83 74.408C177.246 74.408 174.558 73.128 173.15 69.992V85.8H165.278V40.36H172.318L172.83 44.648C174.366 40.936 177.31 39.592 180.83 39.592C190.75 39.592 194.014 46.952 194.014 56.936ZM186.014 56.936C186.014 51.88 185.246 46.44 179.55 46.44C174.302 46.44 173.278 51.176 173.15 56.936C173.15 61.992 174.238 67.496 179.55 67.496C184.926 67.496 186.014 62.056 186.014 56.936ZM205.419 73.64H197.547V26.28H205.419V73.64ZM237.832 58.856H216.776C216.84 64.936 219.4 67.944 225.224 67.944C228.232 67.944 230.856 67.112 233.16 64.936L236.36 70.376C232.712 73.64 228.744 74.408 224.136 74.408C213.64 74.408 208.968 68.648 208.968 56.936C208.968 46.376 213.32 39.592 223.752 39.592C233.288 39.592 237.832 45.736 237.832 55.08V58.856ZM216.776 53.352H230.216C230.216 48.808 227.912 45.928 223.496 45.928C219.016 45.928 216.84 48.872 216.776 53.352ZM268.542 55.912H261.438V73.64H253.31V27.56H269.438C280.126 27.56 285.246 33.192 285.246 41.576C285.246 48.872 280.894 53.544 276.286 54.632L287.166 73.64H277.758L268.542 55.912ZM269.118 34.92H261.438V48.552H268.926C274.11 48.552 276.798 46.312 276.798 41.576C276.798 37.224 274.366 34.92 269.118 34.92ZM325.233 73.64H316.528L313.137 62.76H296.368L293.04 73.64H284.336L300.208 27.56H309.681L325.233 73.64ZM311.089 55.656L304.816 35.368L298.481 55.656H311.089ZM358.92 58.728C358.92 68.84 352.776 74.408 342.28 74.408C333.064 74.408 326.344 69.8 325.384 60.008C324.872 54.504 324.936 47.912 325.192 42.664C325.64 32.488 332.424 26.792 342.92 26.792C348.68 26.792 353.352 28.456 357 32.168L352.136 38.568C350.088 35.496 346.44 34.408 342.92 34.408C337.16 34.408 334.088 37.16 333.704 43.752C333.512 47.4 333.384 54.056 333.896 58.792C334.536 64.808 337.928 66.728 342.28 66.728C346.76 66.728 350.536 64.296 350.536 58.344V55.464H341.704V48.232H358.92V58.728ZM418.275 73.64H409.635V39.464L399.587 62.12H393.443L383.203 39.272V73.64H375.203V27.56H385.891L396.643 51.368L407.587 27.56H418.275V73.64ZM449.428 62.312L454.356 68.456C451.028 72.552 446.292 74.408 440.34 74.408C431.124 74.408 424.212 68.84 423.444 60.328C422.932 54.824 422.996 47.912 423.252 42.664C423.7 32.488 430.356 26.792 440.34 26.792C446.1 26.792 450.132 28.456 453.78 32.168L448.916 38.568C446.868 35.496 443.86 34.408 440.34 34.408C435.284 34.6 432.148 36.84 431.764 43.432C431.572 47.08 431.444 54.376 431.956 59.112C432.596 65.128 435.988 66.728 440.34 66.728C443.988 66.6 446.676 65.768 449.428 62.312ZM473.175 57H465.495V73.64H457.367V27.56H473.559C484.439 27.56 489.879 33.064 489.879 42.152C489.879 52.072 484.119 57 473.175 57ZM473.239 34.92H465.495V49.704H473.239C478.999 49.704 481.367 47.464 481.367 42.28C481.367 37.224 478.807 34.92 473.239 34.92Z" fill="#E4DFB8"/>
<path fill-rule="evenodd" clip-rule="evenodd" d="M62.4214 77.2599C62.4214 77.2599 69.1623 85.5343 79.2675 92.7576C82.6589 95.1779 76.5262 100.666 73.6219 98.7305C36.8555 74.2059 40.0016 24.6267 40.0016 24.6267C40.0016 24.6267 19.6132 56.3102 46.1067 87.7173L45.9055 87.6854C38.0554 86.4411 23.2492 84.0943 15.9736 63.1737C6.00686 34.5633 37.6274 -3.35158 39.3543 2.37741C43.4732 16.0116 53.4797 22.3518 62.9809 28.3718C70.5824 33.1883 77.8606 37.7997 81.5412 45.7778C86.1952 55.8651 77.0165 63.9117 69.2471 70.7229C66.6113 73.0336 64.1377 75.2021 62.4214 77.2599ZM57.1603 59.9948C59.9237 64.3766 74.4581 51.3212 68.2139 45.7778C62.8008 40.9722 51.6335 42.3532 51.6335 42.3532C51.6335 42.3532 51.2345 50.5986 57.1603 59.9948Z" fill="#E4DFB8"/>
</g>
<defs>
<clipPath id="clip0_212_6">
<rect y="100" width="100" height="500" rx="15" transform="rotate(-90 0 100)" fill="white"/>
</clipPath>
</defs>
</svg>
